<?xml version="1.0" standalone="no"?><!DOCTYPE svg PUBLIC "-//W3C//DTD SVG 1.1//EN" "http://www.w3.org/Graphics/SVG/1.1/DTD/svg11.dtd"><svg t="1554848782325" class="icon" style="" viewBox="0 0 1024 1024" version="1.1" xmlns="http://www.w3.org/2000/svg" p-id="1370" xmlns:xlink="http://www.w3.org/1999/xlink" width="200" height="200"><defs><style type="text/css"></style></defs><path d="M972.8 934.4l-233.6-233.6c64-70.4 102.4-163.2 102.4-268.8C841.6 211.2 662.4 32 441.6 32S41.6 214.4 41.6 435.2s179.2 400 400 400c96 0 182.4-32 249.6-89.6l236.8 236.8c12.8 12.8 32 12.8 44.8 0 12.8-12.8 12.8-35.2 0-48zM105.6 435.2C105.6 249.6 256 99.2 441.6 99.2s336 150.4 336 336-150.4 336-336 336S105.6 617.6 105.6 435.2z" p-id="1371"></path></svg>